<svg viewBox="0 0 25 28" fill="none" xmlns="http://www.w3.org/2000/svg">
<path d="M7.12504 18.2129H21.948C23.6288 18.2129 25 16.8417 25 15.1609V8.92433C25 8.9188 25 8.90774 25 8.90222C25 8.88563 25 8.87457 25 8.85798C25 8.84693 25 8.83587 24.9945 8.82481C24.9945 8.81375 24.9889 8.79717 24.9889 8.78611C24.9889 8.77505 24.9834 8.76399 24.9834 8.75293C24.9779 8.74188 24.9779 8.73082 24.9724 8.71423C24.9668 8.70317 24.9668 8.69212 24.9613 8.68106C24.9558 8.67 24.9558 8.65894 24.9502 8.64789C24.9447 8.63683 24.9392 8.62577 24.9337 8.60918C24.9281 8.59813 24.9226 8.58707 24.9171 8.58154C24.9115 8.57048 24.906 8.55942 24.9005 8.54836C24.895 8.53731 24.8894 8.53178 24.8839 8.52072C24.8784 8.50966 24.8673 8.4986 24.8618 8.48755C24.8562 8.47649 24.8507 8.47096 24.8397 8.4599C24.8341 8.44884 24.8231 8.44332 24.8175 8.43226C24.812 8.4212 24.801 8.41567 24.7954 8.40461C24.7899 8.39356 24.7788 8.38803 24.7733 8.3825C24.7623 8.37144 24.7567 8.36591 24.7457 8.35485C24.7346 8.34932 24.7291 8.33827 24.718 8.33274C24.707 8.32721 24.6959 8.31615 24.6849 8.31062C24.6738 8.30509 24.6683 8.29956 24.6572 8.29403C24.6462 8.28851 24.6351 8.28298 24.624 8.27192C24.613 8.26639 24.6019 8.26086 24.5909 8.25533C24.5798 8.2498 24.5687 8.24427 24.5577 8.23875C24.5466 8.23322 24.5356 8.22769 24.5245 8.22216C24.5135 8.21663 24.5024 8.21663 24.4913 8.2111C24.4803 8.20557 24.4637 8.20004 24.4526 8.20004C24.4416 8.20004 24.4305 8.19452 24.425 8.19452C24.4084 8.18899 24.3973 8.18899 24.3808 8.18899C24.3752 8.18899 24.3697 8.18346 24.3586 8.18346L5.57141 5.5904V2.96969C5.57141 2.94205 5.57141 2.91441 5.56588 2.89229C5.56588 2.88676 5.56588 2.88123 5.56035 2.87017C5.56035 2.85359 5.55483 2.837 5.55483 2.82041C5.5493 2.80383 5.5493 2.79277 5.54377 2.77618C5.54377 2.76513 5.53824 2.7596 5.53824 2.74854C5.53271 2.73195 5.52718 2.71536 5.52165 2.69878C5.52165 2.69325 5.51612 2.68219 5.51612 2.67666C5.51059 2.66008 5.50507 2.64902 5.49401 2.63243C5.48848 2.6269 5.48848 2.61584 5.48295 2.61032C5.47742 2.59926 5.47189 2.5882 5.46083 2.57714C5.45531 2.56608 5.44978 2.56056 5.44425 2.5495C5.43872 2.53844 5.43319 2.53291 5.42766 2.52185C5.42213 2.5108 5.41107 2.49974 5.40555 2.48868C5.40002 2.48315 5.39449 2.47762 5.38896 2.47209C5.3779 2.46104 5.36684 2.44998 5.35579 2.43892C5.35026 2.43339 5.34473 2.42786 5.3392 2.42233C5.32814 2.41127 5.31708 2.40022 5.3005 2.38916C5.29497 2.38363 5.28391 2.3781 5.27838 2.37257C5.26732 2.36151 5.25627 2.35599 5.24521 2.34493C5.22862 2.33387 5.21203 2.32281 5.20098 2.31728C5.19545 2.31175 5.18992 2.31175 5.18439 2.30623C5.16227 2.29517 5.13463 2.28411 5.11251 2.27305L1.03771 0.55909C0.656213 0.398752 0.219429 0.575677 0.0590902 0.957172C-0.101248 1.33867 0.075677 1.77545 0.457172 1.93579L4.07308 3.46177V6.84546V7.38176V11.4953V15.172V19.8163C4.07308 21.3644 5.23415 22.6471 6.73248 22.8406C6.46157 23.294 6.30123 23.8247 6.30123 24.3887C6.30123 26.0529 7.65581 27.4019 9.31448 27.4019C10.9732 27.4019 12.3277 26.0474 12.3277 24.3887C12.3277 23.8358 12.1785 23.3106 11.9131 22.8682H18.6252C18.3598 23.3161 18.2105 23.8358 18.2105 24.3887C18.2105 26.0529 19.5651 27.4019 21.2238 27.4019C22.8824 27.4019 24.237 26.0474 24.237 24.3887C24.237 22.73 22.8824 21.3754 21.2238 21.3754H7.12504C6.26253 21.3754 5.56588 20.6733 5.56588 19.8163V17.7927C6.01925 18.0581 6.55556 18.2129 7.12504 18.2129ZM10.8405 24.3832C10.8405 25.2236 10.1549 25.9036 9.32001 25.9036C8.48515 25.9036 7.79956 25.218 7.79956 24.3832C7.79956 23.5483 8.48515 22.8627 9.32001 22.8627C10.1549 22.8627 10.8405 23.5428 10.8405 24.3832ZM22.7497 24.3832C22.7497 25.2236 22.0641 25.9036 21.2293 25.9036C20.3944 25.9036 19.7088 25.218 19.7088 24.3832C19.7088 23.5483 20.3944 22.8627 21.2293 22.8627C22.0641 22.8627 22.7497 23.5428 22.7497 24.3832ZM21.948 16.7201H7.12504C6.26253 16.7201 5.56588 16.0179 5.56588 15.1609V11.4842V7.37071V7.09426L23.5072 9.56568V15.1554C23.5072 16.0235 22.805 16.7201 21.948 16.7201Z" fill="black"/>
</svg>
