<svg viewBox="0 0 29 29" fill="none" xmlns="http://www.w3.org/2000/svg">
<g clip-path="url(#clip0)">
<path d="M25.6328 2.63281H23.026V1.86719C23.026 0.962547 22.29 0.226562 21.3854 0.226562C20.4808 0.226562 19.7448 0.962547 19.7448 1.86719V2.63281H10.5573V1.86719C10.5573 0.962547 9.82129 0.226562 8.91665 0.226562C8.01201 0.226562 7.27602 0.962547 7.27602 1.86719V2.65305C7.22954 2.6402 7.18081 2.63281 7.13023 2.63281H4.95126C3.44352 2.63281 2.21688 3.85945 2.21688 5.36719V14.6823C2.21688 14.9843 2.46177 15.2291 2.76376 15.2291C3.06574 15.2291 3.31063 14.9843 3.31063 14.6823V8.26562H23.026C23.328 8.26562 23.5729 8.02079 23.5729 7.71875C23.5729 7.41671 23.328 7.17188 23.026 7.17188H3.31063V5.36719C3.31063 4.46255 4.04662 3.72656 4.95126 3.72656H7.13023C7.18081 3.72656 7.22954 3.71913 7.27602 3.70633V4.41016C7.27602 5.3148 8.01201 6.05078 8.91665 6.05078C9.82129 6.05078 10.5573 5.3148 10.5573 4.41016V3.72656H19.7448V4.41016C19.7448 5.3148 20.4808 6.05078 21.3854 6.05078C22.29 6.05078 23.026 5.3148 23.026 4.41016V3.72656H25.6328C26.5375 3.72656 27.2734 4.46255 27.2734 5.36719V26.1481C27.2734 26.691 26.8317 27.1328 26.2887 27.1328C25.7457 27.1328 25.304 26.691 25.304 26.1481V24.7334C25.304 24.4314 25.0591 24.1865 24.7572 24.1865H18.3959C18.0939 24.1865 17.849 24.4314 17.849 24.7334C17.849 25.0354 18.0939 25.2803 18.3959 25.2803H24.2103V26.1481C24.2103 26.5042 24.3004 26.8395 24.4588 27.1328H2.44531C1.90254 27.1328 1.46094 26.6912 1.46094 26.1484V25.2803H13.7014C14.0034 25.2803 14.2482 25.0354 14.2482 24.7334C14.2482 24.4314 14.0034 24.1865 13.7014 24.1865H8.23721C9.19282 23.3635 9.79963 22.1462 9.79963 20.7891C9.79963 18.3164 7.78795 16.3047 5.31526 16.3047C2.84256 16.3047 0.830883 18.3164 0.830883 20.7891C0.830883 22.1462 1.4377 23.3635 2.3933 24.1865H0.914062C0.612078 24.1865 0.367188 24.4314 0.367188 24.7334V26.1484C0.367188 27.2943 1.29945 28.2266 2.44531 28.2266H26.2887C27.4348 28.2266 28.3672 27.2942 28.3672 26.1481V5.36719C28.3672 3.85945 27.1405 2.63281 25.6328 2.63281ZM9.46352 4.41016C9.46352 4.7117 9.21819 4.95703 8.91665 4.95703C8.6151 4.95703 8.36977 4.7117 8.36977 4.41016V1.86719C8.36977 1.56564 8.6151 1.32031 8.91665 1.32031C9.21819 1.32031 9.46352 1.56564 9.46352 1.86719V4.41016ZM21.9323 4.41016C21.9323 4.7117 21.6869 4.95703 21.3854 4.95703C21.0839 4.95703 20.8385 4.7117 20.8385 4.41016V1.86719C20.8385 1.56564 21.0839 1.32031 21.3854 1.32031C21.6869 1.32031 21.9323 1.56564 21.9323 1.86719V4.41016ZM1.92463 20.7891C1.92463 18.9195 3.44566 17.3984 5.31526 17.3984C7.18486 17.3984 8.70588 18.9195 8.70588 20.7891C8.70588 22.6587 7.18486 24.1797 5.31526 24.1797C3.44566 24.1797 1.92463 22.6587 1.92463 20.7891Z" fill="black"/>
<path d="M25.9779 7.33211C25.8762 7.23039 25.7351 7.17188 25.5913 7.17188C25.4474 7.17188 25.3064 7.23039 25.2047 7.33211C25.103 7.43383 25.0444 7.57492 25.0444 7.71875C25.0444 7.86258 25.1029 8.00367 25.2047 8.10539C25.3064 8.20711 25.4474 8.26562 25.5913 8.26562C25.7351 8.26562 25.8762 8.20711 25.9779 8.10539C26.0796 8.00367 26.1382 7.86258 26.1382 7.71875C26.1382 7.57492 26.0797 7.43383 25.9779 7.33211Z" fill="black"/>
<path d="M16.6996 24.3465C16.5979 24.2447 16.4568 24.1868 16.313 24.1868C16.1692 24.1868 16.0281 24.2447 15.9263 24.3465C15.8246 24.4487 15.7661 24.5893 15.7661 24.7331C15.7661 24.8775 15.8246 25.018 15.9263 25.1203C16.0281 25.222 16.1692 25.28 16.313 25.28C16.4568 25.28 16.5979 25.222 16.6996 25.1203C16.8013 25.018 16.8599 24.8769 16.8599 24.7331C16.8599 24.5893 16.8013 24.4487 16.6996 24.3465Z" fill="black"/>
<path d="M12.7402 16.8516C11.5944 16.8516 10.6621 17.7838 10.6621 18.9297C10.6621 20.0756 11.5944 21.0078 12.7402 21.0078C13.8861 21.0078 14.8184 20.0756 14.8184 18.9297C14.8184 17.7838 13.8861 16.8516 12.7402 16.8516ZM12.7402 19.9141C12.1975 19.9141 11.7559 19.4725 11.7559 18.9297C11.7559 18.3869 12.1975 17.9453 12.7402 17.9453C13.283 17.9453 13.7246 18.3869 13.7246 18.9297C13.7246 19.4725 13.283 19.9141 12.7402 19.9141Z" fill="black"/>
<path d="M17.8442 16.8516C16.6984 16.8516 15.7661 17.7838 15.7661 18.9297C15.7661 20.0756 16.6984 21.0078 17.8442 21.0078C18.9901 21.0078 19.9224 20.0756 19.9224 18.9297C19.9224 17.7838 18.9901 16.8516 17.8442 16.8516ZM17.8442 19.9141C17.3015 19.9141 16.8599 19.4725 16.8599 18.9297C16.8599 18.3869 17.3015 17.9453 17.8442 17.9453C18.387 17.9453 18.8286 18.3869 18.8286 18.9297C18.8286 19.4725 18.387 19.9141 17.8442 19.9141Z" fill="black"/>
<path d="M22.9482 16.8516C21.8024 16.8516 20.8701 17.7838 20.8701 18.9297C20.8701 20.0756 21.8024 21.0078 22.9482 21.0078C24.0941 21.0078 25.0264 20.0756 25.0264 18.9297C25.0264 17.7838 24.0941 16.8516 22.9482 16.8516ZM22.9482 19.9141C22.4055 19.9141 21.9639 19.4725 21.9639 18.9297C21.9639 18.3869 22.4055 17.9453 22.9482 17.9453C23.491 17.9453 23.9326 18.3869 23.9326 18.9297C23.9326 19.4725 23.491 19.9141 22.9482 19.9141Z" fill="black"/>
<path d="M7.63574 11.1641C6.48988 11.1641 5.55762 12.0963 5.55762 13.2422C5.55762 14.3881 6.48988 15.3203 7.63574 15.3203C8.78161 15.3203 9.71387 14.3881 9.71387 13.2422C9.71387 12.0963 8.78161 11.1641 7.63574 11.1641ZM7.63574 14.2266C7.09297 14.2266 6.65137 13.785 6.65137 13.2422C6.65137 12.6994 7.09297 12.2578 7.63574 12.2578C8.17852 12.2578 8.62012 12.6994 8.62012 13.2422C8.62012 13.785 8.17852 14.2266 7.63574 14.2266Z" fill="black"/>
<path d="M17.8442 11.1641C16.6984 11.1641 15.7661 12.0963 15.7661 13.2422C15.7661 14.3881 16.6984 15.3203 17.8442 15.3203C18.9901 15.3203 19.9224 14.3881 19.9224 13.2422C19.9224 12.0963 18.9901 11.1641 17.8442 11.1641ZM17.8442 14.2266C17.3015 14.2266 16.8599 13.785 16.8599 13.2422C16.8599 12.6994 17.3015 12.2578 17.8442 12.2578C18.387 12.2578 18.8286 12.6994 18.8286 13.2422C18.8286 13.785 18.387 14.2266 17.8442 14.2266Z" fill="black"/>
<path d="M22.9482 11.1641C21.8024 11.1641 20.8701 12.0963 20.8701 13.2422C20.8701 14.3881 21.8024 15.3203 22.9482 15.3203C24.0941 15.3203 25.0264 14.3881 25.0264 13.2422C25.0264 12.0963 24.0941 11.1641 22.9482 11.1641ZM22.9482 14.2266C22.4055 14.2266 21.9639 13.785 21.9639 13.2422C21.9639 12.6994 22.4055 12.2578 22.9482 12.2578C23.491 12.2578 23.9326 12.6994 23.9326 13.2422C23.9326 13.785 23.491 14.2266 22.9482 14.2266Z" fill="black"/>
<path d="M12.7402 11.1641C11.5944 11.1641 10.6621 12.0963 10.6621 13.2422C10.6621 14.3881 11.5944 15.3203 12.7402 15.3203C13.8861 15.3203 14.8184 14.3881 14.8184 13.2422C14.8184 12.0963 13.8861 11.1641 12.7402 11.1641ZM12.7402 14.2266C12.1975 14.2266 11.7559 13.785 11.7559 13.2422C11.7559 12.6994 12.1975 12.2578 12.7402 12.2578C13.283 12.2578 13.7246 12.6994 13.7246 13.2422C13.7246 13.785 13.283 14.2266 12.7402 14.2266Z" fill="black"/>
<path d="M7.26362 19.4563C7.05001 19.2428 6.70384 19.2428 6.49017 19.4563L4.70922 21.2373L4.1006 20.6287C3.88699 20.4151 3.54082 20.4151 3.32716 20.6287C3.1136 20.8423 3.1136 21.1885 3.32716 21.4021L4.32252 22.3974C4.42512 22.4999 4.56419 22.5576 4.70922 22.5576C4.85425 22.5576 4.99332 22.4999 5.09592 22.3974L7.26362 20.2297C7.47717 20.0161 7.47717 19.6699 7.26362 19.4563Z" fill="black"/>
</g>
<defs>
<clipPath id="clip0">
<rect width="28" height="28" fill="white" transform="translate(0.367188 0.226562)"/>
</clipPath>
</defs>
</svg>
