<svg width="31" height="30" viewBox="0 0 31 30" fill="none" xmlns="http://www.w3.org/2000/svg">
<path d="M30.1243 16.0513C29.8549 13.342 28.6445 10.7878 26.716 8.85917C25.0678 7.21107 23.0505 6.15198 20.9279 5.68105V4.19228C21.7948 3.97659 22.4393 3.19183 22.4393 2.25906C22.4393 1.16053 21.5456 0.266846 20.447 0.266846H16.2282C15.1297 0.266846 14.236 1.16053 14.236 2.25906C14.236 3.19177 14.8804 3.97653 15.7473 4.19228V5.68521C13.6312 6.15813 11.6206 7.21576 9.97711 8.85922C9.61745 9.21888 9.28581 9.59617 8.98223 9.98828C8.96752 9.98717 8.95281 9.98606 8.93781 9.98606H4.7623C4.43874 9.98606 4.17635 10.2484 4.17635 10.572C4.17635 10.8956 4.43874 11.158 4.7623 11.158H8.18493C7.75531 11.8772 7.4089 12.6325 7.14523 13.4101H0.768076C0.444516 13.4101 0.182129 13.6724 0.182129 13.996C0.182129 14.3197 0.444516 14.582 0.768076 14.582H6.81411C6.64524 15.3233 6.54832 16.0777 6.5233 16.8342H3.93219C3.60863 16.8342 3.34624 17.0965 3.34624 17.4201C3.34624 17.7438 3.60863 18.0061 3.93219 18.0061H6.54199C6.59145 18.7645 6.71338 19.519 6.90786 20.2583H3.11186C2.7883 20.2583 2.52592 20.5206 2.52592 20.8442C2.52592 21.1679 2.7883 21.4302 3.11186 21.4302H7.28181C7.85662 22.9508 8.75494 24.376 9.97711 25.5981C11.9076 27.5286 14.4644 28.7393 17.1765 29.0072C17.5636 29.0454 17.951 29.0644 18.3378 29.0644C20.6243 29.0644 22.8817 28.4026 24.7972 27.1553C25.0683 26.9787 25.145 26.6157 24.9684 26.3445C24.7918 26.0733 24.4288 25.9966 24.1577 26.1732C19.9648 28.9036 14.3495 28.3132 10.8058 24.7695C6.64776 20.6115 6.64776 13.846 10.8058 9.68793C14.9637 5.52999 21.7292 5.52999 25.8873 9.68793C29.4263 13.227 30.0199 18.8375 27.2986 23.0283C27.1223 23.2998 27.1995 23.6627 27.4708 23.8389C27.7424 24.0151 28.1052 23.938 28.2814 23.6666C29.7353 21.4274 30.3898 18.7229 30.1243 16.0513ZM15.4079 2.25912C15.4079 1.80677 15.7759 1.4388 16.2282 1.4388H20.447C20.8994 1.4388 21.2674 1.80677 21.2674 2.25912C21.2674 2.71147 20.8994 3.07945 20.447 3.07945H20.3419H16.3333H16.2282C15.7759 3.07945 15.4079 2.71141 15.4079 2.25912ZM16.9192 5.48376V4.25134H19.756V5.48165C18.814 5.36962 17.861 5.37032 16.9192 5.48376Z" fill="black"/>
<path d="M26.3018 24.5977C26.1471 24.5977 25.9965 24.6604 25.8876 24.7693C25.778 24.8783 25.7158 25.0295 25.7158 25.1836C25.7158 25.3377 25.778 25.4889 25.8876 25.5979C25.9965 25.7074 26.1471 25.7695 26.3018 25.7695C26.4559 25.7695 26.6064 25.7074 26.716 25.5979C26.825 25.4889 26.8877 25.3377 26.8877 25.1836C26.8877 25.0295 26.8251 24.8783 26.716 24.7693C26.6064 24.6604 26.4558 24.5977 26.3018 24.5977Z" fill="black"/>
<path d="M18.3466 8.13892C13.3345 8.13892 9.25684 12.2165 9.25684 17.2286C9.25684 22.2408 13.3345 26.3184 18.3466 26.3184C23.3586 26.3184 27.4363 22.2408 27.4363 17.2286C27.4363 12.2165 23.3586 8.13892 18.3466 8.13892ZM18.3466 25.1465C13.9806 25.1465 10.4287 21.5945 10.4287 17.2286C10.4287 12.8628 13.9806 9.31081 18.3466 9.31081C22.7125 9.31081 26.2644 12.8628 26.2644 17.2286C26.2644 21.5945 22.7125 25.1465 18.3466 25.1465Z" fill="black"/>
<path d="M22.0531 12.6936L19.1509 15.5957C18.9082 15.4757 18.6352 15.4079 18.3466 15.4079C18.058 15.4079 17.785 15.4757 17.5423 15.5957L16.2435 14.2968C16.0146 14.068 15.6437 14.068 15.4148 14.2968C15.186 14.5257 15.186 14.8967 15.4148 15.1255L16.7136 16.4244C16.5936 16.6671 16.5258 16.9401 16.5258 17.2286C16.5258 18.2326 17.3426 19.0494 18.3466 19.0494C19.3506 19.0494 20.1674 18.2326 20.1674 17.2286C20.1674 16.9401 20.0996 16.6671 19.9796 16.4244L22.7966 13.6074L22.8817 13.5222C23.1105 13.2934 23.1105 12.9224 22.8817 12.6936C22.6529 12.4648 22.282 12.4648 22.0531 12.6936ZM18.3466 17.8776C17.9888 17.8776 17.6977 17.5865 17.6977 17.2287C17.6977 16.8709 17.9888 16.5798 18.3466 16.5798C18.7044 16.5798 18.9955 16.8709 18.9955 17.2287C18.9955 17.5865 18.7044 17.8776 18.3466 17.8776Z" fill="black"/>
<path d="M24.6112 16.6499H24.0684C23.7448 16.6499 23.4824 16.9122 23.4824 17.2358C23.4824 17.5595 23.7448 17.8218 24.0684 17.8218H24.6112C24.9348 17.8218 25.1972 17.5595 25.1972 17.2358C25.1972 16.9122 24.9348 16.6499 24.6112 16.6499Z" fill="black"/>
<path d="M12.6244 16.6355H12.0815C11.758 16.6355 11.4956 16.8978 11.4956 17.2214C11.4956 17.545 11.758 17.8074 12.0815 17.8074H12.6244C12.9479 17.8074 13.2103 17.545 13.2103 17.2214C13.2103 16.8978 12.9479 16.6355 12.6244 16.6355Z" fill="black"/>
<path d="M18.3535 12.0924C18.6771 12.0924 18.9395 11.83 18.9395 11.5064V10.9636C18.9395 10.64 18.6771 10.3777 18.3535 10.3777C18.03 10.3777 17.7676 10.64 17.7676 10.9636V11.5064C17.7676 11.83 18.03 12.0924 18.3535 12.0924Z" fill="black"/>
<path d="M18.3394 22.3647C18.0158 22.3647 17.7534 22.6271 17.7534 22.9507V23.4935C17.7534 23.8171 18.0158 24.0794 18.3394 24.0794C18.6629 24.0794 18.9253 23.8171 18.9253 23.4935V22.9507C18.9253 22.6271 18.6629 22.3647 18.3394 22.3647Z" fill="black"/>
<path d="M0.768066 20.2581C0.613965 20.2581 0.462793 20.3208 0.353809 20.4297C0.244824 20.5387 0.182129 20.6899 0.182129 20.844C0.182129 20.9987 0.244766 21.1493 0.353809 21.2583C0.462852 21.3672 0.613965 21.4299 0.768066 21.4299C0.922168 21.4299 1.07334 21.3672 1.18227 21.2583C1.29125 21.1493 1.354 20.9981 1.354 20.844C1.354 20.6899 1.29131 20.5387 1.18227 20.4297C1.07334 20.3208 0.922168 20.2581 0.768066 20.2581Z" fill="black"/>
</svg>
