<svg width="36" height="36" viewBox="0 0 36 36" fill="none" xmlns="http://www.w3.org/2000/svg">
<g clip-path="url(#clip0)">
<path d="M33.3248 15.9818L32.4184 12.3563C32.6662 12.3037 32.8521 12.0838 32.8521 11.8204V11.2359C32.8521 9.96675 31.8196 8.93425 30.5505 8.93425H26.4221V7.72853C26.4221 7.10399 25.9141 6.59595 25.2895 6.59595H4.24564C3.62111 6.59595 3.11307 7.10399 3.11307 7.72853V17.6659C3.11307 17.9686 3.35841 18.214 3.6611 18.214C3.96373 18.214 4.20914 17.9686 4.20914 17.6659V7.72853C4.20914 7.70836 4.22548 7.69202 4.24564 7.69202H25.2895C25.3096 7.69202 25.326 7.70836 25.326 7.72853V17.6661C25.326 17.9687 25.5713 18.2141 25.874 18.2141C26.1766 18.2141 26.422 17.9688 26.422 17.6661V17.0448H32.8867C32.8873 17.0448 32.8877 17.0449 32.8882 17.0449C32.8887 17.0449 32.8892 17.0449 32.8897 17.0449C33.6852 17.0454 34.3606 17.5676 34.5926 18.287H32.8886C32.5859 18.287 32.3405 18.5324 32.3405 18.8351V20.0042C32.3405 20.951 33.1108 21.7213 34.0576 21.7213H34.6788V24.1325H33.2458C32.7751 22.7733 31.483 21.7943 29.9658 21.7943C28.4486 21.7943 27.1564 22.7733 26.6858 24.1325H26.4219V20.0041C26.4219 19.7015 26.1766 19.4561 25.8739 19.4561C25.5712 19.4561 25.3258 19.7014 25.3258 20.0041V24.1324H13.9558C13.485 22.7732 12.193 21.7941 10.6757 21.7941C9.1585 21.7941 7.86637 22.7732 7.39571 24.1324H4.24564C4.22548 24.1324 4.20914 24.116 4.20914 24.0959V22.8902H6.58388C6.8865 22.8902 7.13191 22.6449 7.13191 22.3422C7.13191 22.0395 6.88657 21.7941 6.58388 21.7941H1.32294C1.02031 21.7941 0.774902 22.0395 0.774902 22.3422C0.774902 22.6449 1.02024 22.8902 1.32294 22.8902H3.11313V24.0959C3.11313 24.7204 3.62118 25.2285 4.24571 25.2285H7.20595C7.20581 25.2406 7.20499 25.2527 7.20499 25.265C7.20499 27.1787 8.76201 28.7357 10.6757 28.7357C12.5895 28.7357 14.1465 27.1787 14.1465 25.265C14.1465 25.2527 14.1457 25.2406 14.1455 25.2285H26.496C26.4959 25.2406 26.495 25.2527 26.495 25.265C26.495 27.1787 28.0521 28.7357 29.9658 28.7357C31.8795 28.7357 33.4365 27.1787 33.4365 25.265C33.4365 25.2527 33.4357 25.2406 33.4356 25.2285H35.2268C35.5294 25.2285 35.7748 24.9831 35.7748 24.6804V18.8349C35.7749 17.3917 34.7101 16.1926 33.3248 15.9818ZM26.4221 10.0303H30.5505C31.2153 10.0303 31.7561 10.5711 31.7561 11.2359V11.2724H26.4221V10.0303ZM26.4221 15.9488V12.3684H31.2917L32.1868 15.9488H26.4221ZM10.6757 27.6398C9.36631 27.6398 8.301 26.5746 8.301 25.2651C8.301 23.9556 9.36631 22.8904 10.6757 22.8904C11.9852 22.8904 13.0505 23.9556 13.0505 25.2651C13.0505 26.5746 11.9852 27.6398 10.6757 27.6398ZM29.9659 27.6398C28.6565 27.6398 27.5912 26.5746 27.5912 25.2651C27.5912 23.9556 28.6565 22.8904 29.9659 22.8904C31.2754 22.8904 32.3407 23.9556 32.3407 25.2651C32.3407 26.5746 31.2754 27.6398 29.9659 27.6398ZM34.6789 20.6252H34.0578C33.7153 20.6252 33.4367 20.3466 33.4367 20.0041V19.383H34.6788V20.6252H34.6789Z" fill="black"/>
<path d="M10.6755 24.1323C10.051 24.1323 9.54297 24.6404 9.54297 25.2649C9.54297 25.8894 10.051 26.3975 10.6755 26.3975C11.3001 26.3975 11.8081 25.8894 11.8081 25.2649C11.8081 24.6404 11.3001 24.1323 10.6755 24.1323Z" fill="black"/>
<path d="M29.9661 24.1323C29.3415 24.1323 28.8335 24.6404 28.8335 25.2649C28.8335 25.8894 29.3415 26.3975 29.9661 26.3975C30.5906 26.3975 31.0987 25.8894 31.0987 25.2649C31.0987 24.6404 30.5906 24.1323 29.9661 24.1323Z" fill="black"/>
<path d="M23.5355 21.7942H15.3517C15.0491 21.7942 14.8037 22.0395 14.8037 22.3422C14.8037 22.6449 15.0491 22.8903 15.3517 22.8903H23.5355C23.8381 22.8903 24.0835 22.6449 24.0835 22.3422C24.0835 22.0395 23.8382 21.7942 23.5355 21.7942Z" fill="black"/>
<path d="M9.507 19.4561H2.49237C2.18975 19.4561 1.94434 19.7014 1.94434 20.0041C1.94434 20.3068 2.18968 20.5521 2.49237 20.5521H9.507C9.80963 20.5521 10.055 20.3068 10.055 20.0041C10.055 19.7014 9.80963 19.4561 9.507 19.4561Z" fill="black"/>
<path d="M19.8316 12.0172C19.6177 11.8032 19.2706 11.8032 19.0566 12.0172L14.1832 16.8906L11.6479 14.3554C11.4339 14.1414 11.0869 14.1414 10.8729 14.3554C10.6589 14.5694 10.6589 14.9163 10.8729 15.1304L13.7957 18.0532C13.9027 18.1602 14.043 18.2137 14.1832 18.2137C14.3234 18.2137 14.4637 18.1602 14.5706 18.0532L19.8316 12.7922C20.0456 12.5781 20.0456 12.2312 19.8316 12.0172Z" fill="black"/>
</g>
<defs>
<clipPath id="clip0">
<rect width="35" height="35" fill="white" transform="translate(0.774902 0.165771)"/>
</clipPath>
</defs>
</svg>
