<svg width="36" height="36" viewBox="0 0 36 36" fill="none" xmlns="http://www.w3.org/2000/svg">
<g clip-path="url(#clip0)">
<path d="M16.8442 23.9484L16.2374 26.9401H22.6574L22.0436 23.9175C21.4022 23.9587 21.4611 23.9484 16.8442 23.9484Z" fill="#343434"/>
<path d="M5.56032 8.52141L6.82663 11.2579H9.15043L9.14974 11.2565L7.47496 7.63618C6.15614 4.78739 2.04796 4.94015 0.952259 7.88791C0.0572198 10.2925 0.404543 12.9805 1.88175 15.0786C2.48306 15.933 3.71136 17.8873 6.52227 18.9639L9.03445 19.9272C8.46518 19.0977 8.0296 18.1753 7.75269 17.1766C5.50878 16.3169 4.81777 15.5855 3.60649 13.8643C2.53007 12.335 2.27691 10.3754 2.92873 8.62332C3.36973 7.43819 5.02914 7.37252 5.56032 8.52141Z" fill="#343434"/>
<path d="M27.8519 10.6223C25.0578 12.4173 21.8263 13.3658 18.5056 13.3658C17.8541 13.3658 9.75139 13.3658 9.52972 13.3658V14.72C9.52972 18.6501 12.7283 21.8389 16.6487 21.8389H21.0853C25.8195 21.8389 30.2544 19.2436 32.6478 15.0441L35.3702 10.2664C35.6112 9.8433 35.3592 9.31171 34.88 9.22517C32.4711 8.78993 29.9576 9.26978 27.8519 10.6223Z" fill="#343434"/>
<path d="M24.4159 29.0493H14.4783C13.9356 29.0493 13.4946 29.4901 13.4946 30.033V30.9147H25.3996V30.033C25.3996 29.492 24.9604 29.0493 24.4159 29.0493Z" fill="#343434"/>
</g>
<defs>
<clipPath id="clip0">
<rect width="35" height="35" fill="white" transform="translate(0.462891 0.750244)"/>
</clipPath>
</defs>
</svg>
