<svg width="35" height="35" viewBox="0 0 35 35" fill="none" xmlns="http://www.w3.org/2000/svg">
<g clip-path="url(#clip0)">
<path d="M19.8899 14.7457C19.4087 14.7213 18.9187 14.7037 18.4206 14.6928C18.2858 14.6928 18.1516 14.6873 18.0149 14.686C17.8531 14.6842 17.6897 14.6827 17.5249 14.6819C16.5875 14.6819 15.6835 14.7141 14.8184 14.7693C15.7086 15.2795 16.5511 15.8689 17.3356 16.5301C18.1304 15.858 18.9854 15.2606 19.8899 14.7457Z" fill="white"/>
<path d="M21.0089 21.2717C21.7588 19.7486 22.8024 18.3885 24.0797 17.27C23.2833 16.5112 22.4008 15.8482 21.4501 15.2949C20.3023 15.8542 19.2242 16.547 18.239 17.3592C19.3923 18.4842 20.3311 19.81 21.0089 21.2717Z" fill="white"/>
<path d="M13.6508 21.2729C14.3299 19.8076 15.271 18.4787 16.4279 17.3513C15.4414 16.5412 14.3628 15.8502 13.2142 15.2927C12.2622 15.8465 11.3784 16.5101 10.5811 17.2701C11.8581 18.3892 12.9011 19.7495 13.6508 21.2729Z" fill="white"/>
<path d="M28.0651 21.1005C30.1099 20.3768 31.2943 19.4806 31.2943 18.6264C31.2943 17.7533 30.0552 16.8365 27.9252 16.1042C27.1987 16.4669 26.5058 16.8936 25.855 17.3792C26.8046 18.4801 27.5527 19.7397 28.0651 21.1005Z" fill="white"/>
<path d="M26.289 15.6248C25.3053 15.383 24.3098 15.1931 23.3062 15.0559C23.9118 15.4912 24.4838 15.9711 25.0177 16.4917C25.4267 16.1814 25.8511 15.8922 26.289 15.6248Z" fill="white"/>
<path d="M21.84 22.3724C23.5458 22.2165 25.2352 21.9143 26.8894 21.4689C26.4238 20.2599 25.7517 19.1408 24.903 18.1619C23.5753 19.3146 22.5279 20.7546 21.84 22.3724Z" fill="white"/>
<path d="M14.47 22.4582C15.4746 22.5306 16.5286 22.5729 17.6336 22.5729C18.5239 22.5729 19.3786 22.5438 20.2043 22.4958C19.5765 20.8593 18.5949 19.3812 17.3301 18.1675C16.0751 19.3719 15.0988 20.8364 14.47 22.4582Z" fill="white"/>
<path d="M9.75664 18.1614C8.94368 19.0973 8.29259 20.1621 7.83008 21.3123C9.45029 21.7909 11.1104 22.1211 12.7906 22.2991C12.1011 20.7105 11.0643 19.2965 9.75664 18.1614Z" fill="white"/>
<path d="M32.278 17.6573C32.4282 17.9592 32.507 18.2915 32.5086 18.6287C32.5086 20.2826 30.6404 21.5599 27.8835 22.4307C27.8791 22.4307 27.8767 22.4354 27.8726 22.4367C27.8682 22.438 27.8622 22.4367 27.8573 22.4367C24.5318 23.3749 21.0888 23.8297 17.6336 23.7871C16.3259 23.7871 15.004 23.7262 13.7146 23.6092H13.6982C13.6866 23.6092 13.6762 23.6037 13.6648 23.603H13.6393C13.6064 23.6032 13.5737 23.6006 13.5415 23.5952C13.5371 23.5952 13.5348 23.5915 13.5307 23.591C11.2599 23.4058 9.0184 22.9557 6.8519 22.2504C6.84723 22.2504 6.8423 22.2504 6.83815 22.2504C6.83374 22.2504 6.83011 22.245 6.82518 22.2429C4.37904 21.3796 2.75858 20.1667 2.75858 18.6264C2.76662 18.0972 2.95183 17.5862 3.28516 17.1753C1.39569 18.0847 0.330078 19.1364 0.330078 20.1441C0.330078 22.7288 7.31233 25.6084 17.3301 25.6084C27.3478 25.6084 34.3301 22.7288 34.3301 20.1441C34.3301 19.3099 33.6014 18.4461 32.278 17.6573Z" fill="white"/>
<path d="M1.5697 23.5655L2.68564 29.0704C2.69368 29.1104 2.69783 29.1511 2.69783 29.1918C2.69783 30.7887 8.87672 33.8597 17.33 33.8597C25.7833 33.8597 31.9622 30.7887 31.9622 29.1908C31.9622 29.1498 31.9664 29.1093 31.9744 29.0694L33.0904 23.5649C29.7449 25.6492 23.4659 26.8227 17.33 26.8227C11.1942 26.8227 4.91518 25.6492 1.5697 23.5655ZM10.6515 31.68C10.6178 31.68 10.5844 31.6771 10.5514 31.6714C8.27829 31.3002 6.11516 30.4323 4.21584 29.1301C4.0423 28.9999 3.95125 28.7869 3.97719 28.5716C4.00313 28.3563 4.14217 28.1711 4.34164 28.086C4.54112 28.0007 4.77069 28.0284 4.94423 28.1586C6.69206 29.3371 8.67258 30.1267 10.7517 30.4743C11.0627 30.5267 11.2816 30.8087 11.2554 31.1231C11.2295 31.4375 10.967 31.6795 10.6515 31.68ZM13.08 32.2872C12.7446 32.2872 12.4728 32.0154 12.4728 31.68C12.4728 31.3446 12.7446 31.0727 13.08 31.0727C13.4154 31.0727 13.6873 31.3446 13.6873 31.68C13.6873 32.0154 13.4154 32.2872 13.08 32.2872Z" fill="white"/>
<path d="M6.66975 20.9001C7.17895 19.6176 7.89957 18.4296 8.8015 17.3855C8.22407 16.9528 7.61293 16.5668 6.97403 16.2317C5.06563 16.9399 3.97278 17.8037 3.97278 18.6265C3.97278 19.4028 4.9559 20.2148 6.66975 20.9001Z" fill="white"/>
<path d="M11.1883 15.1748C10.3004 15.317 9.4205 15.5037 8.55151 15.7346C8.88951 15.9476 9.25864 16.2093 9.63762 16.4964C10.1237 16.021 10.642 15.5795 11.1883 15.1748Z" fill="white"/>
<path d="M17.2906 11.747C17.2221 11.953 17.2686 12.1799 17.4128 12.3423C17.557 12.5047 17.777 12.5779 17.9897 12.5343C18.2024 12.4904 18.3757 12.3366 18.4441 12.1307L18.7974 11.0705C19.317 9.53018 18.9147 7.82826 17.7604 6.68327C16.9347 5.86279 16.6468 4.64413 17.0185 3.54091L17.3718 2.48022C17.4779 2.16168 17.3056 1.81746 16.9871 1.71136C16.6686 1.60553 16.3243 1.77777 16.2182 2.09631L15.8649 3.15648C15.3456 4.69705 15.7477 6.39871 16.902 7.5437C17.7279 8.36418 18.0156 9.58284 17.6439 10.6863L17.2906 11.747Z" fill="white"/>
<path d="M11.3867 11.7469C11.3182 11.9529 11.3649 12.1798 11.5089 12.3422C11.6531 12.5046 11.8731 12.5778 12.0858 12.5342C12.2985 12.4903 12.4718 12.3365 12.5402 12.1305L12.8935 11.0704C13.4131 9.53007 13.0108 7.82815 11.8567 6.68316C11.0305 5.86268 10.7426 4.64402 11.1141 3.5408L11.4681 2.48011C11.5366 2.27389 11.4902 2.04692 11.3462 1.88453C11.202 1.72189 10.982 1.64874 10.7693 1.69232C10.5566 1.7359 10.3831 1.88972 10.3146 2.09568L9.96051 3.15637C9.44172 4.69694 9.84404 6.3986 10.9981 7.54359C11.824 8.36407 12.1117 9.58273 11.74 10.6862L11.3867 11.7469Z" fill="white"/>
<path d="M23.1937 11.7469C23.1253 11.9528 23.1717 12.1798 23.3157 12.3425C23.4599 12.5048 23.6799 12.5783 23.8926 12.5347C24.1053 12.4911 24.2788 12.3373 24.3473 12.1311L24.7014 11.0704C25.2202 9.5298 24.8178 7.82814 23.6638 6.68315C22.8378 5.86267 22.5502 4.64401 22.9219 3.54078L23.2752 2.4801C23.3437 2.27388 23.297 2.0469 23.153 1.88452C23.0088 1.72213 22.7888 1.64898 22.5761 1.69256C22.3634 1.7364 22.1901 1.89023 22.1216 2.09619L21.7689 3.15635C21.2493 4.69693 21.6516 6.39859 22.8059 7.54358C23.6319 8.36406 23.9198 9.58272 23.5483 10.6862L23.1937 11.7469Z" fill="white"/>
</g>
<defs>
<clipPath id="clip0">
<rect width="34" height="34" fill="white" transform="translate(0.330078 0.750244)"/>
</clipPath>
</defs>
</svg>
