<svg width="34" height="31" viewBox="0 0 34 31" fill="none" xmlns="http://www.w3.org/2000/svg">
<path d="M32.8975 9.65674C32.8924 9.64318 32.8816 9.63357 32.876 9.62057C32.7534 9.14699 32.6104 8.68584 32.4341 8.24672L30.8449 9.54993C31.0738 9.96417 31.2863 10.3858 31.4812 10.813L32.2165 12.9193C32.1617 13.3126 32.0588 13.6822 31.8955 14.0207C31.2501 15.3612 29.9429 15.8286 29.9011 15.8444L19.8304 19.927C19.8163 19.5461 19.7637 19.1363 19.6631 18.691C19.6512 18.639 19.6439 18.587 19.6411 18.5362L31.0986 13.7726C31.1648 13.7455 31.2218 13.7059 31.2851 13.6749L30.4335 11.2346C30.2097 10.7452 29.965 10.2552 29.6898 9.77259C29.6886 9.77146 29.6869 9.7709 29.6858 9.76977C29.6756 9.7579 29.6734 9.74264 29.6649 9.72964C29.1738 8.87629 28.5804 8.04723 27.8016 7.29108C27.7813 7.28091 27.7604 7.27526 27.7412 7.26226C27.6688 7.21422 27.6151 7.15036 27.5739 7.08028C26.7776 6.35352 25.7988 5.70079 24.5623 5.16673C24.5097 5.16108 24.4566 5.15656 24.4052 5.13508C24.3577 5.11531 24.3215 5.08196 24.2825 5.05201C23.2749 4.64398 22.109 4.30999 20.7374 4.07658C20.7171 4.07885 20.6973 4.08563 20.6764 4.08563C20.6086 4.08563 20.5402 4.07376 20.4735 4.04833C20.4645 4.04494 20.4594 4.03759 20.4509 4.03363C18.3966 3.71094 15.9061 3.60357 12.8611 3.78158C12.851 3.78215 12.8425 3.78723 12.8317 3.78723C12.8255 3.78723 12.8204 3.78384 12.8142 3.78384C10.396 3.92739 7.63475 4.24895 4.46207 4.78696L3.75057 4.87004L2.95485 15.0334C1.92574 15.6896 -0.245512 17.4675 0.579021 20.3813C0.870066 21.4087 1.34535 22.0129 1.99243 22.1751C2.11054 22.205 2.30325 22.3034 2.27499 22.4831C2.05685 23.8665 1.68612 26.4192 1.65843 27.9722C1.64543 28.6843 1.85679 29.267 2.2863 29.7044C2.96164 30.3922 3.97832 30.4944 4.52424 30.4944C4.71695 30.4944 4.84354 30.482 4.8441 30.4814C5.05603 30.4673 6.80739 30.3119 7.38722 29.0991C7.74156 28.3577 7.55506 27.4534 6.8379 26.4142L16.1039 22.6577C16.1056 22.6588 16.1078 22.6588 16.1095 22.66C16.2197 22.7182 16.3378 22.7639 16.4599 22.8012C16.4791 22.8075 16.4966 22.8171 16.5164 22.8227C16.6577 22.8617 16.8058 22.8877 16.9612 22.8984C17.0358 22.9035 17.1143 22.9064 17.1946 22.9064C17.2172 22.9064 17.237 22.9007 17.259 22.9001C17.4308 22.8962 17.6038 22.8832 17.7761 22.8515C17.8434 22.8397 17.9044 22.8182 17.9694 22.8018C18.0666 22.7769 18.1621 22.7487 18.2559 22.7136C18.3356 22.6837 18.4125 22.6509 18.4871 22.6142C18.5605 22.578 18.6306 22.5345 18.7007 22.4904C18.7713 22.4458 18.8442 22.4056 18.9086 22.3548C19.0228 22.2644 19.1296 22.1615 19.2274 22.0457C19.2393 22.0315 19.2551 22.0219 19.2669 22.0072C19.4472 21.7817 19.5795 21.5173 19.675 21.2228C19.6767 21.2177 19.6795 21.2138 19.6812 21.2087L30.2939 16.9052C30.3645 16.8814 32.0441 16.2982 32.9042 14.5327C33.5626 13.1815 33.5604 11.5415 32.8975 9.65674ZM6.19648 24.5905C6.3095 24.2163 6.72092 23.8891 7.4313 23.6133L14.9216 20.4989C14.951 20.8979 15.0403 21.3618 15.2579 21.7812L6.2852 25.419C6.16313 25.0946 6.12809 24.8154 6.19648 24.5905ZM14.4136 16.9894C14.4062 16.6656 14.5192 16.357 14.7317 16.1196C14.9538 15.8727 15.255 15.7325 15.5817 15.7257C15.6083 15.7252 15.6467 15.6822 15.645 15.6167C15.6303 14.9345 16.1542 14.3683 16.8131 14.3536C16.8397 14.353 16.8781 14.3101 16.8764 14.2445C16.8696 13.9326 17.1172 13.6737 17.4297 13.6675C17.7569 13.6839 18.0005 13.9088 18.0067 14.2208C18.0214 14.9029 17.4969 15.4697 16.838 15.4844C16.8114 15.485 16.7736 15.5274 16.7753 15.5929C16.79 16.275 16.2655 16.8419 15.6066 16.8566C15.5647 16.8571 15.5427 16.9227 15.5433 16.9645C15.5506 17.277 15.3031 17.5353 14.9911 17.5421C14.9866 17.5421 14.9826 17.5421 14.9781 17.5421C14.6718 17.5421 14.4203 17.2968 14.4136 16.9894ZM23.9451 7.8986C24.3967 7.8986 25.011 7.8986 25.5405 8.15348C26.0158 8.38179 26.5826 8.8972 26.5826 10.054C26.5826 11.9557 24.6391 13.5031 22.2497 13.5031C20.2282 13.5031 18.482 13.5031 18.482 11.1843C18.4825 9.04244 23.0562 7.8986 23.9451 7.8986ZM14.9646 4.55978C15.3545 4.47783 15.7546 4.54791 16.0892 4.75588C16.4328 4.96837 16.6662 5.30067 16.747 5.69005C16.7843 5.87202 16.9838 5.98675 17.1935 5.9421C17.584 5.86015 17.9835 5.93023 18.3175 6.1382C18.6611 6.35069 18.8945 6.68299 18.9753 7.07237C18.9985 7.1837 19.0765 7.24756 19.1211 7.27469C19.2082 7.32838 19.3133 7.34646 19.4207 7.32386C19.727 7.26282 20.0254 7.45723 20.0887 7.7624C20.1519 8.06814 19.9558 8.3671 19.6501 8.43096C19.5439 8.453 19.4365 8.46374 19.3302 8.46374C19.0465 8.46374 18.7685 8.38575 18.5261 8.23542C18.1824 8.02237 17.949 7.69063 17.8688 7.30125C17.8456 7.18992 17.7671 7.12606 17.7224 7.09893C17.636 7.04468 17.5297 7.02603 17.4229 7.04977C16.6023 7.21535 15.8044 6.71012 15.641 5.91893C15.6179 5.8076 15.5393 5.74374 15.4947 5.71661C15.4082 5.66236 15.3008 5.64314 15.1951 5.66744C14.8871 5.72961 14.5904 5.53351 14.5271 5.2289C14.4627 4.92203 14.6588 4.62307 14.9646 4.55978ZM15.3347 10.8074C15.4393 10.852 15.5359 10.826 15.5845 10.8057C15.6789 10.7661 15.7546 10.6892 15.7981 10.5898C15.9242 10.3033 16.257 10.1738 16.543 10.2999C16.8289 10.4253 16.9584 10.7593 16.8329 11.0441C16.6718 11.4098 16.3842 11.6952 16.0214 11.8472C15.6489 12.0038 15.2426 12.0009 14.8792 11.841C14.7747 11.7958 14.678 11.8223 14.6294 11.8427C14.5351 11.8822 14.4593 11.9591 14.4158 12.0586C14.079 12.8238 13.2025 13.1821 12.4616 12.8548C12.357 12.8096 12.2604 12.8362 12.2118 12.8565C12.1174 12.8961 12.0417 12.973 11.9982 13.0724C11.9049 13.2843 11.6975 13.4104 11.4805 13.4104C11.4048 13.4104 11.3273 13.3951 11.2533 13.3623C10.9674 13.2369 10.8379 12.9029 10.9634 12.6181C11.1245 12.2524 11.4127 11.967 11.7749 11.815C12.1474 11.6585 12.5537 11.6613 12.9171 11.8212C13.0866 11.8958 13.2952 11.7986 13.3811 11.6036C13.5416 11.2386 13.8298 10.9532 14.192 10.8011C14.5644 10.644 14.9697 10.6469 15.3347 10.8074ZM11.3403 5.09666C12.1355 5.09666 13.9778 5.09666 13.9778 7.25152C13.9778 9.1532 12.0343 10.7011 9.64494 10.7011C7.62288 10.7011 5.87717 10.7011 5.87717 8.38179C5.87717 6.24049 10.4514 5.09666 11.3403 5.09666ZM4.56662 17.5517C4.56662 15.4098 9.14027 14.2666 10.0298 14.2666C10.8249 14.2666 12.6673 14.2666 12.6673 16.4214C12.6673 18.3231 10.7238 19.871 8.33439 19.871C6.31289 19.871 4.56662 19.871 4.56662 17.5517Z" fill="#343434"/>
<path d="M21.0261 11.9059C21.3382 11.9059 21.5912 11.6529 21.5912 11.3408C21.5912 11.0287 21.3382 10.7756 21.0261 10.7756C20.714 10.7756 20.4609 11.0287 20.4609 11.3408C20.4609 11.6529 20.714 11.9059 21.0261 11.9059Z" fill="#343434"/>
<path d="M23.9749 10.4096C24.287 10.4096 24.5401 10.1566 24.5401 9.84443C24.5401 9.53232 24.287 9.2793 23.9749 9.2793C23.6628 9.2793 23.4098 9.53232 23.4098 9.84443C23.4098 10.1566 23.6628 10.4096 23.9749 10.4096Z" fill="#343434"/>
<path d="M23.2336 11.8314C23.5457 11.8314 23.7987 11.5784 23.7987 11.2663C23.7987 10.9542 23.5457 10.7012 23.2336 10.7012C22.9215 10.7012 22.6685 10.9542 22.6685 11.2663C22.6685 11.5784 22.9215 11.8314 23.2336 11.8314Z" fill="#343434"/>
<path d="M8.45295 9.21182C8.76507 9.21182 9.01809 8.9588 9.01809 8.64668C9.01809 8.33456 8.76507 8.08154 8.45295 8.08154C8.14084 8.08154 7.88782 8.33456 7.88782 8.64668C7.88782 8.9588 8.14084 9.21182 8.45295 9.21182Z" fill="#343434"/>
<path d="M11.7489 8.46377C12.061 8.46377 12.314 8.21075 12.314 7.89863C12.314 7.58652 12.061 7.3335 11.7489 7.3335C11.4367 7.3335 11.1837 7.58652 11.1837 7.89863C11.1837 8.21075 11.4367 8.46377 11.7489 8.46377Z" fill="#343434"/>
<path d="M9.92744 7.89858C10.2396 7.89858 10.4926 7.64556 10.4926 7.33345C10.4926 7.02133 10.2396 6.76831 9.92744 6.76831C9.61532 6.76831 9.3623 7.02133 9.3623 7.33345C9.3623 7.64556 9.61532 7.89858 9.92744 7.89858Z" fill="#343434"/>
<path d="M7.18147 18.2904C7.49359 18.2904 7.74661 18.0374 7.74661 17.7253C7.74661 17.4132 7.49359 17.1602 7.18147 17.1602C6.86935 17.1602 6.61633 17.4132 6.61633 17.7253C6.61633 18.0374 6.86935 18.2904 7.18147 18.2904Z" fill="#343434"/>
<path d="M9.01814 16.977C9.33026 16.977 9.58328 16.7239 9.58328 16.4118C9.58328 16.0997 9.33026 15.8467 9.01814 15.8467C8.70602 15.8467 8.453 16.0997 8.453 16.4118C8.453 16.7239 8.70602 16.977 9.01814 16.977Z" fill="#343434"/>
<path d="M9.92744 18.1073C10.2396 18.1073 10.4926 17.8543 10.4926 17.5422C10.4926 17.2301 10.2396 16.9771 9.92744 16.9771C9.61532 16.9771 9.3623 17.2301 9.3623 17.5422C9.3623 17.8543 9.61532 18.1073 9.92744 18.1073Z" fill="#343434"/>
<path d="M7.74479 3.1476V1.07129C7.30116 1.13232 6.87674 1.19336 6.49867 1.2527C5.17907 1.46067 4.15957 2.44683 3.87756 3.71726L4.30142 3.66809C5.50346 3.46408 6.64956 3.29171 7.74479 3.1476Z" fill="#343434"/>
<path d="M29.2184 4.03247C28.3497 3.35939 27.3495 2.7773 26.2107 2.29468L25.3489 4.34669C26.3458 4.81349 27.1997 5.35546 27.931 5.95902L29.2184 4.03247Z" fill="#343434"/>
<path d="M12.2659 0.61499C11.0503 0.692414 9.90706 0.802615 8.87512 0.92638V3.01004C10.067 2.87045 11.199 2.76477 12.2659 2.69526V0.61499Z" fill="#343434"/>
<path d="M21.0792 0.901509C19.9139 0.722361 18.6752 0.599161 17.3522 0.543213V2.628C18.4158 2.67886 19.3963 2.77494 20.3056 2.91L21.0792 0.901509Z" fill="#343434"/>
<path d="M25.1578 1.88199C24.2508 1.56551 23.2669 1.30555 22.2146 1.09814L21.4409 3.10551C22.5005 3.3163 23.4539 3.58474 24.3079 3.90574L25.1578 1.88199Z" fill="#343434"/>
<path d="M16.2219 2.5908V0.519576C15.9868 0.516185 15.7602 0.504883 15.5206 0.504883C14.8 0.504883 14.0919 0.525228 13.3962 0.55518V2.63488C14.3914 2.5908 15.3347 2.57554 16.2219 2.5908Z" fill="#343434"/>
<path d="M30.2542 8.57222L31.9383 7.19103C31.4523 6.29811 30.8307 5.49336 30.0807 4.77563L28.7736 6.73327C29.3427 7.3097 29.8292 7.92683 30.2542 8.57222Z" fill="#343434"/>
</svg>
