<svg width="29" height="30" viewBox="0 0 29 30" fill="none" xmlns="http://www.w3.org/2000/svg">
<g clip-path="url(#clip0)">
<path d="M20.9662 29.7502L21.1302 28.051H9.47327L9.63727 29.7502H20.9662Z" fill="#343434"/>
<path d="M21.2943 26.3518L21.7865 21.2542H17.7627V20.4045C17.7627 18.9991 16.6588 17.8557 15.3018 17.8557C13.9447 17.8557 12.8408 18.9991 12.8408 20.4045V21.2542H8.81708L9.30927 26.3518H21.2943ZM12.8408 22.9534H17.7627V24.6526H12.8408V22.9534Z" fill="#343434"/>
<path d="M12.0205 7.60382L9.3791 3.8938C8.64082 4.94731 8.14863 6.24444 8.00098 7.60382H12.0205Z" fill="#343434"/>
<path d="M22.6026 7.60376C22.1924 3.79751 19.0916 0.750244 15.3018 0.750244C13.4479 0.750244 11.7908 1.46386 10.4948 2.61933L14.0713 7.60376H22.6026Z" fill="#343434"/>
<path d="M9.3791 3.89374C9.70723 3.41802 10.0846 2.99321 10.4947 2.61933L9.14941 0.750244H4.6377V2.44946H8.3291L9.3791 3.89374Z" fill="#343434"/>
<path d="M6.27832 9.30298H24.3252V12.7581H6.27832V9.30298Z" fill="#343434"/>
<path d="M15.3018 16.1565C17.2829 16.1565 18.9395 17.6184 19.3208 19.5549H21.9504L22.4426 14.4573H8.16089L8.65308 19.5549H11.2827C11.664 17.6184 13.3207 16.1565 15.3018 16.1565Z" fill="#343434"/>
</g>
<defs>
<clipPath id="clip0">
<rect width="28" height="29" fill="white" transform="translate(0.481445 0.750244)"/>
</clipPath>
</defs>
</svg>
