<svg width="58" height="58" viewBox="0 0 58 58" fill="none" xmlns="http://www.w3.org/2000/svg">
<g clip-path="url(#clip0)">
<path d="M41.2329 51.0656L40.4365 54.3212C38.0472 55.2643 36.1386 55.982 34.7174 56.4755C33.2947 56.9706 31.6415 57.2168 29.758 57.2168C26.8655 57.2168 24.6157 56.5082 23.0111 55.1008C21.4065 53.6878 20.6039 51.8972 20.6039 49.7251C20.6039 48.8842 20.6622 48.0193 20.7832 47.1381C20.9053 46.2558 21.0995 45.2622 21.3651 44.1516L24.3511 33.583C24.6167 32.571 24.8425 31.6121 25.0234 30.7053C25.2068 29.8042 25.2951 28.975 25.2951 28.2287C25.2951 26.879 25.0157 25.9349 24.4594 25.4041C23.903 24.8749 22.8415 24.6062 21.2655 24.6062C20.4936 24.6062 19.7002 24.7298 18.8915 24.9689C18.0793 25.209 17.385 25.4409 16.8021 25.6565L17.6006 22.3982C19.5567 21.6018 21.4264 20.9198 23.2149 20.3538C25.0034 19.7862 26.6934 19.5022 28.2918 19.5022C31.1644 19.5022 33.381 20.1965 34.9376 21.585C36.4942 22.9745 37.2722 24.7758 37.2722 26.9955C37.2722 27.4547 37.2211 28.2639 37.1113 29.4205C37.004 30.5796 36.8043 31.6417 36.5131 32.6077L33.5399 43.134C33.2962 43.9794 33.077 44.946 32.8865 46.0336C32.6898 47.1141 32.5958 47.9396 32.5958 48.4934C32.5958 49.8911 32.9074 50.8454 33.5322 51.3527C34.1616 51.8599 35.2456 52.1123 36.7854 52.1123C37.5082 52.1123 38.3307 51.9841 39.2446 51.7322C40.156 51.4804 40.8206 51.2592 41.2329 51.0656ZM41.9869 6.87328C41.9869 8.70726 41.2957 10.2735 39.9067 11.5614C38.5212 12.8539 36.8518 13.5006 34.8988 13.5006C32.9396 13.5006 31.266 12.8539 29.8648 11.5614C28.466 10.273 27.7651 8.70726 27.7651 6.87328C27.7651 5.04287 28.466 3.47403 29.8648 2.16981C31.2635 0.86763 32.9401 0.216797 34.8988 0.216797C36.8513 0.216797 38.5212 0.869162 39.9067 2.16981C41.2967 3.47403 41.9869 5.04338 41.9869 6.87328Z" fill="#F7AF35"/>
</g>
<defs>
<clipPath id="clip0">
<rect width="57" height="57" fill="white" transform="translate(0.894409 0.216797)"/>
</clipPath>
</defs>
</svg>
