<svg  viewBox="0 0 131 23" fill="none" xmlns="http://www.w3.org/2000/svg">
<path d="M4.51 4.96V17.5H7.7V4.96H11.792V2.1H0.396V4.96H4.51ZM16.6916 11.428C16.6916 9.932 17.7696 9.096 18.9576 9.096C20.2556 9.096 20.7176 9.69 20.8936 10.812C20.9596 11.318 20.9596 11.912 20.9596 12.616V14.64C20.9596 17.434 22.6756 17.962 25.2276 17.434V15.586C24.1936 15.652 24.0396 15.432 24.0396 14.486V11.648C24.0396 11.12 24.0176 10.636 23.9516 10.13C23.6216 8.128 22.5436 6.808 20.1676 6.698C18.8256 6.632 17.5496 7.028 16.6916 8.326V1.418H13.6116V17.522H16.6916V11.428ZM36.4088 14.464C35.5508 14.882 34.1648 15.256 32.9328 15.278C30.9968 15.344 29.5228 14.662 29.4568 12.836C30.4028 13.364 31.6568 13.584 32.8668 13.518C34.8028 13.452 36.7388 12.44 36.8488 10.262C36.9148 7.512 34.3188 6.544 31.9208 6.61C29.1268 6.676 26.5308 8.546 26.5308 12.154C26.5308 16.026 29.0168 17.83 32.7348 17.72C34.0768 17.654 35.3088 17.522 36.5188 16.84L36.4088 14.464ZM29.6328 10.878C29.9628 9.558 30.8868 9.052 31.9648 8.986C32.8008 8.986 33.8788 9.294 33.8788 10.262C33.8568 11.054 33.1308 11.406 32.2508 11.428C31.2828 11.494 30.0728 11.164 29.6328 10.878Z" fill="#F7AF35"/>
<path d="M39.4656 2.1V17.5C40.5656 17.5 41.6656 17.5 42.7656 17.5V5.092H48.6396V17.5C49.7396 17.5 50.8396 17.5 51.9396 17.5V2.1H39.4656ZM62.4281 6.896V12.902C62.4281 14.332 61.4821 15.256 60.2501 15.234C59.1721 15.234 58.3581 14.464 58.4241 12.968V9.316C58.4241 6.676 56.3121 6.412 54.2221 6.94V8.744C55.3001 8.678 55.3221 9.162 55.3221 10.152V12.968C55.3221 15.608 56.2021 17.654 59.2601 17.654C60.5801 17.654 62.0541 17.192 62.6481 15.96C62.6481 18.006 65.0241 17.852 66.5201 17.5L66.4981 15.586C65.5521 15.652 65.5081 15.3 65.5081 14.31V6.896H62.4281ZM71.5571 8.524C71.5571 6.5 69.4891 6.522 68.0591 6.83L68.0811 8.876C69.2031 8.81 69.0711 9.47 69.0711 10.482V22.934H72.1511V17.038C75.8471 18.908 79.6751 16.312 79.6751 12.11C79.6751 9.228 78.0031 6.588 74.9011 6.588C73.5371 6.588 72.1511 7.204 71.5571 8.524ZM72.0631 11.714C72.0851 10.46 72.8771 9.316 74.2631 9.294C75.8251 9.294 76.5731 10.702 76.5731 12.11C76.5731 14.794 74.2411 15.784 72.0631 14.486V11.714ZM92.5145 12.154C92.5145 8.414 89.6765 6.566 86.8385 6.588C84.0445 6.61 81.2725 8.48 81.2725 12.154C81.2725 15.872 84.1105 17.72 86.9265 17.72C89.7205 17.72 92.5145 15.872 92.5145 12.154ZM84.3305 12.154C84.3305 10.24 85.6285 9.294 86.9265 9.294C88.2245 9.294 89.4565 10.262 89.4565 12.154C89.4565 14.09 88.1585 15.058 86.8605 15.036C85.5845 15.036 84.3305 14.068 84.3305 12.154ZM100.677 14.266C100.633 15.102 99.8186 15.542 98.8726 15.542C98.0146 15.542 97.1566 15.212 97.1346 14.486C97.1346 13.628 97.9046 13.364 98.6526 13.254C100.787 12.968 103.559 12.55 103.559 9.976C103.559 7.6 101.601 6.61 99.0046 6.61C96.4746 6.61 94.3406 7.754 94.4506 9.998H97.3546C97.3766 9.228 98.0806 8.92 98.9606 8.92C99.8406 8.92 100.589 9.25 100.589 9.954C100.589 10.746 99.7526 10.922 99.0706 10.988C96.6946 11.274 93.9886 11.692 94.0546 14.53C94.1206 17.06 96.4306 17.808 98.8286 17.808C101.227 17.808 103.713 17.082 103.823 14.266H100.677Z" fill="black"/>
</svg>
