<svg  viewBox="0 0 10 11" fill="none" xmlns="http://www.w3.org/2000/svg">
<path d="M5.48298 1.01848L6.61085 3.30384C6.68928 3.46279 6.84093 3.57292 7.01636 3.59837L9.53847 3.96487C9.98027 4.02912 10.1565 4.57188 9.83697 4.88331L8.01198 6.6622C7.88515 6.7859 7.82716 6.96425 7.8572 7.13884L8.28795 9.65073C8.36346 10.0907 7.90163 10.4261 7.50656 10.2185L5.25082 9.03267C5.09396 8.95027 4.90643 8.95027 4.74957 9.03267L2.49383 10.2185C2.09875 10.4263 1.63692 10.0907 1.71244 9.65073L2.14318 7.13884C2.17322 6.96425 2.11523 6.7859 1.98841 6.6622L0.163416 4.88331C-0.15615 4.57167 0.0201115 4.02891 0.461914 3.96487L2.98403 3.59837C3.15945 3.57292 3.3111 3.46279 3.38953 3.30384L4.5174 1.01848C4.71473 0.618189 5.28545 0.618189 5.48298 1.01848Z" fill="#F7AF35"/>
</svg>
