<svg width="140" height="185" viewBox="0 0 140 185" fill="none" xmlns="http://www.w3.org/2000/svg">
<path d="M2.68994 95.7192L15.7507 111.506M9.9585 55.1745L29.947 107.531M34.0355 20.4219L43.689 103.329" stroke="#F7AF35" stroke-width="4" stroke-linecap="round" stroke-linejoin="round"/>
<path d="M137.31 95.5282L124.102 111.213M129.96 55.2436L109.746 107.264M105.611 20.7139L95.8483 103.089" stroke="#F7AF35" stroke-width="4" stroke-linecap="round" stroke-linejoin="round"/>
<path d="M13.8572 137.886C12.871 152.878 22.6874 182.861 69.8418 182.861C116.996 182.861 125.75 152.878 124.233 137.886" stroke="black" stroke-width="4" stroke-linecap="round"/>
<path d="M45.2629 144.157C32.8978 143.55 8.16748 139.696 8.16748 129.137C8.16748 118.577 49.2538 113.206 70.2966 113.206C91.9084 112.258 131.288 118.577 131.288 129.137C131.288 139.696 107.62 143.55 95.7855 144.157" stroke="black" stroke-width="4" stroke-linecap="round"/>
<path d="M26.313 149.841L31.5373 165.4M38.1244 156.315L40.3958 165.4M49.7086 153.816L50.6171 171.988M60.1571 157.678V169.375M69.5835 153.816V173.464M79.237 157.678V169.375M89.7863 153.816L88.9734 171.988M100.914 156.237L99.01 165.744M112.895 149.841L107.977 165.4" stroke="black" stroke-width="4" stroke-linecap="round"/>
<path d="M56.7827 144.97H84.6223" stroke="black" stroke-width="4" stroke-linecap="round"/>
<path d="M77.0257 90.7761C76.1714 90.0759 74.9112 90.201 74.2111 91.0553C73.511 91.9097 73.636 93.1698 74.4904 93.8699L77.0257 90.7761ZM81.1058 126.919C81.1058 128.024 82.0013 128.919 83.1058 128.919C84.2104 128.919 85.1058 128.024 85.1058 126.919H81.1058ZM74.4904 93.8699C75.6454 94.8164 77.3899 96.4218 78.8249 98.1144C79.5429 98.9612 80.1443 99.7843 80.5565 100.522C80.99 101.297 81.1058 101.787 81.1058 102.018H85.1058C85.1058 100.779 84.6094 99.5739 84.0479 98.5696C83.465 97.527 82.6887 96.4863 81.8759 95.5276C80.2494 93.6092 78.32 91.8367 77.0257 90.7761L74.4904 93.8699ZM81.1058 102.018V126.919H85.1058V102.018H81.1058Z" fill="black"/>
<rect x="58.3604" y="108.454" width="22.8682" height="8.16464" fill="#E5E5E5"/>
<path d="M76.3293 108.454C76.3293 107.35 75.4339 106.454 74.3293 106.454C73.2248 106.454 72.3293 107.35 72.3293 108.454H76.3293ZM72.3293 126.211C72.3293 127.316 73.2248 128.211 74.3293 128.211C75.4339 128.211 76.3293 127.316 76.3293 126.211H72.3293ZM72.3293 108.454V126.211H76.3293V108.454H72.3293Z" fill="black"/>
<path d="M41.6218 130.746C49.5871 127.56 71.9809 123.099 97.8339 130.746" stroke="black" stroke-width="4" stroke-linecap="round" stroke-linejoin="round"/>
<path d="M73.5108 80.0212C73.2045 82.6634 70.949 88.7305 64.3778 91.8605C57.8067 94.9905 56.4469 101.579 56.5884 104.483L56.4443 126.442" stroke="black" stroke-width="4"/>
<path d="M65.7604 80.2083C61.079 55.4023 54.8761 5.08153 67.516 2.24654C80.1558 -0.588458 76.7618 53.0398 73.4848 80.2083" stroke="black" stroke-width="4"/>
<path d="M66.9404 108.454C66.9404 107.35 66.045 106.454 64.9404 106.454C63.8359 106.454 62.9404 107.35 62.9404 108.454H66.9404ZM62.9404 126.211C62.9404 127.316 63.8359 128.211 64.9404 128.211C66.045 128.211 66.9404 127.316 66.9404 126.211H62.9404ZM62.9404 108.454V126.211H66.9404V108.454H62.9404Z" fill="black"/>
</svg>
